<svg width="42" height="26" viewBox="0 0 42 26" fill="none" xmlns="http://www.w3.org/2000/svg">
<path d="M-5.68248e-07 13C-6.59846e-07 10.9045 0.283783 9.1194 0.85135 7.64478C1.38108 6.14428 2.13784 4.91542 3.12162 3.95821C4.06757 3.001 5.22162 2.30249 6.58378 1.86269C7.94595 1.39702 9.44054 1.16418 11.0676 1.16418C13.2243 1.16418 15.0405 1.62985 16.5162 2.56119C17.9919 3.46667 19.0135 4.74726 19.5811 6.40299C19.8838 5.44577 20.3378 4.57911 20.9432 3.80299C21.5486 3.001 22.3054 2.31542 23.2135 1.74627C24.0838 1.17712 25.0865 0.750251 26.2216 0.465674C27.3189 0.155225 28.5108 6.61101e-07 29.7973 6.04867e-07C31.4243 5.33748e-07 32.9757 0.271643 34.4514 0.814927C35.927 1.33234 37.2324 2.13433 38.3676 3.2209C39.4649 4.30746 40.3351 5.66567 40.9784 7.29552C41.6595 8.92537 42 10.8269 42 13C42 15.1731 41.6595 17.0746 40.9784 18.7045C40.3351 20.3343 39.4649 21.6925 38.3676 22.7791C37.2324 23.8657 35.927 24.6806 34.4514 25.2239C32.9757 25.7413 31.4243 26 29.7973 26C28.5108 26 27.3189 25.8577 26.2216 25.5731C25.0865 25.2627 24.0838 24.8229 23.2135 24.2537C22.3054 23.6846 21.5486 23.0119 20.9432 22.2358C20.3378 21.4597 19.8838 20.5801 19.5811 19.597C19.0135 21.2527 17.9919 22.5463 16.5162 23.4776C15.0405 24.3831 13.2243 24.8358 11.0676 24.8358C9.44054 24.8358 7.94595 24.6159 6.58378 24.1761C5.22162 23.7104 4.06757 22.999 3.12162 22.0418C2.13784 21.0846 1.38108 19.8687 0.85135 18.394C0.283783 16.8935 -4.7665e-07 15.0955 -5.68248e-07 13ZM38.027 13C38.027 10.6458 37.2703 8.8995 35.7568 7.76119C34.2054 6.59701 32.2189 6.01493 29.7973 6.01493C27.527 6.01493 25.6351 6.59701 24.1216 7.76119C22.6081 8.92537 21.8514 10.6716 21.8514 13C21.8514 15.3284 22.6081 17.0746 24.1216 18.2388C25.6351 19.403 27.527 19.9851 29.7973 19.9851C32.2189 19.9851 34.2054 19.4159 35.7568 18.2776C37.2703 17.1134 38.027 15.3542 38.027 13ZM17.8784 13C17.8784 11.0597 17.2541 9.61095 16.0054 8.65373C14.7189 7.67065 13.073 7.1791 11.0676 7.1791C8.91081 7.1791 7.18919 7.67065 5.9027 8.65373C4.61622 9.61095 3.97297 11.0597 3.97297 13C3.97297 14.9403 4.61622 16.402 5.9027 17.3851C7.18919 18.3423 8.91081 18.8209 11.0676 18.8209C13.073 18.8209 14.7189 18.3423 16.0054 17.3851C17.2541 16.402 17.8784 14.9403 17.8784 13Z" fill="#005EB6"/>
</svg>
